<mxfile host="app.diagrams.net" modified="2023-10-23T19:56:06.243Z" agent="Mozilla/5.0 (Windows NT 10.0; Win64; x64) AppleWebKit/537.36 (KHTML, like Gecko) Chrome/117.0.0.0 Safari/537.36 CCleaner/117.0.0.0" version="22.0.6" etag="p2jEGVlft3c5T_VYZwWW" type="github">
  <diagram name="Страница — 1" id="3z9-ucBsdX1WkmhsbpMO">
    <mxGraphModel>
      <root>
        <mxCell id="0" />
        <mxCell id="1" parent="0" />
      </root>
    </mxGraphModel>
  </diagram>
</mxfile>
